<?xml version="1.0" encoding="utf-8"?>
<!-- Generator: Adobe Illustrator 26.0.3, SVG Export Plug-In . SVG Version: 6.00 Build 0)  -->
<svg version="1.1" id="Layer_1" xmlns="http://www.w3.org/2000/svg" xmlns:xlink="http://www.w3.org/1999/xlink" x="0px" y="0px"
	 viewBox="0 0 142.9 46.2" style="enable-background:new 0 0 142.9 46.2;" xml:space="preserve">
<style type="text/css">
	.st0{opacity:0.972;fill-rule:evenodd;clip-rule:evenodd;fill:#C49E46;enable-background:new    ;}
	.st1{opacity:0.96;fill-rule:evenodd;clip-rule:evenodd;fill:#C49E46;enable-background:new    ;}
	.st2{opacity:0.964;fill-rule:evenodd;clip-rule:evenodd;fill:#C49E46;enable-background:new    ;}
	.st3{opacity:0.942;fill-rule:evenodd;clip-rule:evenodd;fill:#C49E46;enable-background:new    ;}
	.st4{opacity:0.955;fill-rule:evenodd;clip-rule:evenodd;fill:#C49E46;enable-background:new    ;}
	.st5{opacity:0.917;fill-rule:evenodd;clip-rule:evenodd;fill:#C49E46;enable-background:new    ;}
	.st6{opacity:0.882;fill-rule:evenodd;clip-rule:evenodd;fill:#C49E46;enable-background:new    ;}
	.st7{opacity:0.9;fill-rule:evenodd;clip-rule:evenodd;fill:#C49E46;enable-background:new    ;}
	.st8{opacity:0.894;fill-rule:evenodd;clip-rule:evenodd;fill:#C49E46;enable-background:new    ;}
	.st9{opacity:0.885;fill-rule:evenodd;clip-rule:evenodd;fill:#C49E46;enable-background:new    ;}
	.st10{opacity:0.883;fill-rule:evenodd;clip-rule:evenodd;fill:#C49E46;enable-background:new    ;}
	.st11{opacity:0.886;fill-rule:evenodd;clip-rule:evenodd;fill:#C49E46;enable-background:new    ;}
	.st12{opacity:0.902;fill-rule:evenodd;clip-rule:evenodd;fill:#C49E46;enable-background:new    ;}
	.st13{opacity:0.889;fill-rule:evenodd;clip-rule:evenodd;fill:#C49E46;enable-background:new    ;}
	.st14{opacity:0.89;fill-rule:evenodd;clip-rule:evenodd;fill:#C49E46;enable-background:new    ;}
	.st15{opacity:0.897;fill-rule:evenodd;clip-rule:evenodd;fill:#C49E46;enable-background:new    ;}
	.st16{opacity:0.904;fill-rule:evenodd;clip-rule:evenodd;fill:#C49E46;enable-background:new    ;}
</style>
<g>
	<path class="st0" d="M2.5,2.5c1.9,0,3.9,0,5.8,0c0,5.4,0,10.7,0,16.1c-1.9,0-3.9,0-5.8,0C2.5,13.2,2.5,7.8,2.5,2.5z"/>
</g>
<g>
	<path class="st1" d="M11,2.5c2,0,4,0,6,0c0,5.9,0,11.7,0,17.6c1.1,0,2.2,0,3.3,0c0-2.8,0-5.5,0.1-8.3c0.5-1.6,1.6-2.7,3.2-3.2
		c2.2-0.1,4.3-0.1,6.5-0.2c-1.6-0.8-2.1-2-1.7-3.7c2,0,4,0,6,0c0,0.7,0,1.4,0.1,2.2c0.1,0.2,0.2,0.4,0.4,0.6c1.9,1.1,3.9,2.2,6,3.2
		c0.9,0.9,1.5,1.9,1.6,3.2c0.1,2.1,0.1,4.2,0.1,6.3c0.9,0.1,1.8,0,2.7-0.2c0.2-0.1,0.3-0.3,0.4-0.6c0.1-3.6,0.1-7.2,0.1-10.8
		c2,0,4,0,6,0c0,3.9,0,7.8,0,11.6c0.5,0,1,0,1.5-0.1c0.3-0.1,0.5-0.3,0.6-0.6c0.1-3.7,0.1-7.3,0.1-11c2,0,4,0,6,0
		c0,3.9,0,7.8,0,11.6c0.5,0,1,0,1.5-0.1c0.3-0.1,0.5-0.3,0.6-0.6c0.1-3.7,0.1-7.3,0.1-11c2,0,4,0,6,0c0,4,0,8-0.1,12
		c-0.3,1.2-1.1,1.9-2.2,2.2c-16.2,0.1-32.4,0.1-48.7,0.1c0.3,1.4-0.1,2.6-1.2,3.6c-0.3,0.2-0.6,0.3-1,0.3c-3.4,0.1-6.8,0.1-10.1,0
		c-1.3-0.4-2.1-1.2-2.3-2.6c0-1.3,0-2.7,0-4c2,0,4,0,6,0c0,1.2,0,2.3,0.1,3.5c0.8,0.9,1.7,0.9,2.5,0C11,16.5,11,9.5,11,2.5z
		 M33.7,10.4c0.8,0.5,1.5,1,2.3,1.4c0.2,0.2,0.4,0.4,0.4,0.7c0.1,2.5,0.1,5,0.1,7.5c-0.7,0-1.4,0-2.2,0c0-2.7,0-5.3-0.1-8
		C34.2,11.5,34,11,33.7,10.4z M26.9,11.1c0.7-0.1,1.2,0.2,1.4,0.8c0.1,2.7,0.1,5.4,0.1,8.1c-0.8,0-1.6,0-2.3,0c0-2.6,0-5.2,0.1-7.8
		C26.3,11.8,26.5,11.4,26.9,11.1z"/>
</g>
<g>
	<path class="st2" d="M100,2.5c2,0,4,0,6,0c0,5.9,0,11.7,0,17.6c1.1,0,2.2,0,3.3,0c0-2.8,0-5.6,0.1-8.5c0.5-1.6,1.6-2.7,3.2-3.1
		c2.2-0.1,4.3-0.1,6.5-0.2c-0.6-0.3-1.2-0.7-1.6-1.2c-0.1-0.8-0.1-1.7-0.1-2.5c2,0,4,0,6,0c0,0.8,0,1.6,0.1,2.3
		c0.2,0.2,0.4,0.4,0.6,0.6c2.1,1.1,4.2,2.2,6.2,3.4c0.5,0.6,0.8,1.2,1,2c0.1,3.3,0.1,6.5,0.1,9.8c-8.5,0-16.9,0-25.4,0
		c0.3,1.6-0.2,2.8-1.5,3.7c-3.6,0.3-7.2,0.3-10.8,0.2c-1.3-0.2-2-0.9-2.2-2.2c-0.1-1.4-0.1-2.9-0.1-4.3c1.9,0,3.9,0,5.8,0
		c0,1.1,0,2.1,0.1,3.2c0.7,1.2,1.6,1.3,2.7,0.3C100,16.5,100,9.5,100,2.5z M122.8,10.6c1,0.4,1.8,0.9,2.6,1.7
		c0.2,2.6,0.3,5.2,0.2,7.8c-0.7,0-1.4,0-2.2,0c0-2.5,0-5.1-0.1-7.6C123.3,11.8,123.1,11.2,122.8,10.6z M116,11.1
		c0.7-0.1,1.2,0.2,1.4,0.8c0.1,2.7,0.1,5.4,0.1,8.1c-0.8,0-1.6,0-2.3,0c0-2.7,0-5.3,0.1-8C115.4,11.7,115.6,11.3,116,11.1z"/>
</g>
<g>
	<path class="st3" d="M134.7,2.5c2,0,4,0,6,0c0,0.8,0,1.6,0,2.3c-1.2,0-2.3,0-3.5,0c0,0.3,0,0.7,0,1c1.2,0,2.3,0,3.5,0
		c0,5.6,0,11.3,0,16.9c-2,0-4,0-6,0C134.7,16,134.7,9.2,134.7,2.5z"/>
</g>
<g>
	<path class="st4" d="M91.4,2.6c2,0,4,0,6,0c0,5.3,0,10.6,0,15.9c-2,0-4,0-6,0C91.4,13.3,91.4,7.9,91.4,2.6z"/>
</g>
<g>
	<path class="st2" d="M74.8,8.4c4,0,8,0,12,0c0,5.4,0,10.7-0.1,16.1c-0.3,1-1,1.7-2.1,1.9c-2.5,0.1-5.1,0.1-7.6,0.1
		c0-0.8,0-1.7,0-2.5c1.1,0,2.2,0,3.3-0.1c0.2-0.1,0.3-0.1,0.4-0.2c0.1-0.3,0.1-0.7,0.1-1c-2.8,0-5.6,0-8.5,0c0-4,0-8,0.1-12
		C72.7,9.5,73.5,8.7,74.8,8.4z M79.1,10.9c0.6,0,1.1,0,1.7,0c0,3,0,6.1,0,9.1c-0.8,0-1.7,0-2.5,0c0-2.8,0-5.5,0.1-8.3
		C78.5,11.4,78.8,11.1,79.1,10.9z"/>
</g>
<g>
	<path class="st5" d="M71.6,44.7c-0.1,0-0.1,0-0.2,0c-1-2.3-2-4.7-3.1-7c-1.2,2.3-2.5,4.5-3.7,6.8c-1.8-4.2-3.5-8.4-5.2-12.6
		c-1.6-1.7-2.8-1.5-3.8,0.5c0.3-1.6,1.1-3,2.2-4.2c2-0.6,3.4,0.1,4.1,2.1c1.3,3,2.6,6,3.8,9c0.6-1.1,1.3-2.2,1.9-3.2
		c-0.8-1.9-1.7-3.7-2.6-5.6c-0.1-0.1-0.2-0.2-0.3-0.3c-0.3,0.2-0.6,0.4-0.8,0.7c0-0.1-0.1-0.1-0.1-0.2c0.7-0.9,1.4-1.7,2.2-2.6
		c0.9-0.4,1.7-0.2,2.2,0.6c0.4,0.9,0.8,1.9,1.2,2.8c0.8-1.1,1.6-2.1,2.6-3.1c2.1-0.7,4-0.4,5.7,0.9c0.9,1.2,1.2,2.5,1,4
		C77.4,37.7,75.1,41.5,71.6,44.7z M71.6,30.7c3.3-0.3,4.8,1.2,4.2,4.5c-0.5,2.1-1.4,4-2.8,5.6c-1.2-3-2.4-6-3.6-9.1
		C70.1,31.3,70.9,31,71.6,30.7z"/>
</g>
<g>
	<path class="st6" d="M10,27.9c0.8,0,1.3,0.3,1.6,1c0.7,2.4,1.3,4.9,1.9,7.3c0.8,0.1,1.5-0.2,2-0.9c0.1-0.1,0.2-0.1,0.3,0
		c-0.6,0.7-1.2,1.4-1.7,2.1c0.2,1.4,0.6,2.7,1.2,4c0.7,0.8,1.5,0.9,2.2,0.2c0.1,0.1,0.1,0.1,0.2,0.2c-0.5,0.8-1,1.6-1.5,2.5
		c-1.1,0.2-2-0.1-2.7-1c-0.7-1.7-1.3-3.4-1.9-5.1c-1-0.1-2-0.1-3,0.1c-0.5,2.2-1.6,4-3.3,5.4c-0.7,0.4-1.3,0.3-1.9-0.2
		c-0.8-1.6-0.8-3.1,0-4.7c0.6-0.7,1.3-1.4,1.9-2.1c1-0.2,2-0.3,3-0.2c0.4-1.8,0.8-3.5,1.3-5.2c-0.2-0.8-0.7-1-1.5-0.8
		c-0.3,0.1-0.5,0.3-0.6,0.6c0-0.1-0.1-0.2-0.1-0.2c0.5-0.9,1.1-1.7,1.8-2.5C9.5,28.1,9.8,28,10,27.9z M10,32.7
		c0.4,1.2,0.8,2.4,1,3.7c-0.7,0-1.3,0-2-0.1C9.4,35.1,9.7,33.9,10,32.7z M5.2,38c0.8,0,1.6,0,2.3,0.1C7.2,39,6.7,40,6.3,40.8
		c-0.6,0.9-1.3,1-2.2,0.3C3.5,39.7,3.9,38.7,5.2,38z"/>
</g>
<g>
	<path class="st7" d="M30.9,27.9c0.5,0.1,1,0.2,1.5,0.2c-0.3,0.7-0.6,1.3-0.9,2c-0.5,0.1-0.9,0.1-1.4,0.1c-0.2,0.2-0.4,0.6-0.4,0.9
		c-0.1,3.3-0.1,6.6,0,10c0.1,0.3,0.3,0.6,0.7,0.7c0.2-0.2,0.5-0.4,0.7-0.4c-0.5,0.9-1.2,1.7-2.2,2.2c-1-0.3-1.5-1.1-1.6-2.2
		c-0.1-2.5-0.1-5.1,0-7.6C28.1,31.5,29.3,29.5,30.9,27.9z"/>
</g>
<g>
	<path class="st8" d="M120.5,27.9c0.5,0.1,1,0.2,1.5,0.3c-0.3,0.6-0.6,1.3-1,1.9c-0.4,0-0.9,0-1.3,0c-0.2,0.1-0.3,0.2-0.4,0.4
		c-0.1,3.6-0.1,7.2,0.1,10.8c0.4,0.4,0.8,0.4,1.1-0.2c0,0.1,0.1,0.1,0.1,0.2c-0.3,0.5-0.7,1-1.1,1.5c-0.6,0.8-1.3,0.9-2,0.2
		c-0.2-0.4-0.4-0.9-0.5-1.3c-0.1-2.8-0.1-5.5,0-8.3C117.7,31.3,118.9,29.5,120.5,27.9z"/>
</g>
<g>
	<path class="st9" d="M21.6,28c1.1-0.1,2.1,0.2,3,0.8c-0.4,0.7-0.8,1.4-1.2,2c-0.8-0.7-1.7-1-2.7-0.9c-0.2,0.1-0.3,0.1-0.4,0.2
		c-0.3,2.1-0.3,4.2-0.2,6.3c0.7-1.1,1.5-2.2,2.4-3.2c1.2,0.1,2,0.7,2.4,1.9c0.2,2.2,0.3,4.3,0.3,6.5c0.1,0.1,0.1,0.2,0.2,0.3
		c0.3-0.2,0.5-0.4,0.7-0.7c0,0.1,0.1,0.1,0.1,0.2c-0.6,0.7-1.2,1.3-1.8,1.9c-0.3,0.1-0.6,0-0.9-0.2c-0.3-0.4-0.5-0.8-0.7-1.3
		c-0.1-1.7-0.1-3.3-0.2-5c-0.1-0.6-0.4-1-0.9-1.3c-1.6,2-2.3,4.3-2.1,6.8c-0.6,0.4-1.2,0.8-1.8,1.2c-0.2-3.8-0.1-7.5,0.2-11.3
		C19,30.6,20.2,29.2,21.6,28z"/>
</g>
<g>
	<path class="st10" d="M111,28c1.2-0.1,2.2,0.2,3.2,0.9c-0.4,0.7-0.9,1.3-1.3,1.9c-0.6-0.6-1.3-0.9-2.2-1c-0.4,0-0.8,0.2-1.1,0.5
		c-0.1,2-0.1,4,0,6c0.7-1.1,1.5-2.1,2.4-3.1c0.4-0.1,0.8-0.1,1.2,0.2c0.6,0.6,1,1.3,1.2,2.1c0.2,2.1,0.3,4.2,0.3,6.3
		c0.1,0.1,0.2,0.1,0.2,0.2c0.3-0.2,0.5-0.4,0.7-0.7c0,0.1,0.1,0.1,0.1,0.2c-0.6,0.7-1.2,1.3-1.8,1.9c-0.5,0.2-0.8,0-1.1-0.4
		c-0.2-0.3-0.3-0.6-0.5-0.8c-0.1-1.7-0.1-3.3-0.2-5c-0.1-0.7-0.4-1.3-1-1.7c-1.6,2-2.2,4.3-2,6.8c-0.6,0.4-1.2,0.8-1.8,1.2
		c-0.2-3.8-0.1-7.6,0.2-11.5c0.3-0.5,0.6-1,1-1.5C109.4,29.7,110.2,28.9,111,28z"/>
</g>
<g>
	<path class="st11" d="M90.7,33.2c1,0,2,0,3,0.2c0.8,0.1,1.5,0.4,2.2,0.9c-0.6,0.9-1.2,1.7-1.9,2.5c-0.1-0.3,0-0.5,0.2-0.7
		c-1.1-0.6-2.2-1-3.4-1.2c-1,0.1-1.1,0.6-0.4,1.2c1.6,0.6,3.1,1.1,4.7,1.7c0.9,0.3,1.3,0.8,1.2,1.7c-0.5,3.4-2.3,4.5-5.6,3.4
		c-0.9-0.2-1.8-0.5-2.5-1.1c0.4-0.9,0.8-1.8,1.1-2.7c0,0.3,0.1,0.6,0.2,0.9c1.5,0.8,3.1,1.3,4.8,1.3c0.3-0.1,0.4-0.3,0.5-0.6
		c-0.2-0.3-0.4-0.5-0.7-0.7c-1.3-0.7-2.7-1.2-4.2-1.7c-1.8-0.8-2.1-2-1.1-3.6C89.3,34.3,90,33.6,90.7,33.2z"/>
</g>
<g>
	<path class="st12" d="M33.6,33.4c2-0.1,4,0.1,5.9,0.7c0,2.4,0.1,4.9,0.3,7.3c0.1,0.2,0.2,0.4,0.3,0.5c0.2-0.3,0.5-0.4,0.7-0.3
		c-0.4,0.8-1,1.5-1.7,2.1c-0.5,0.1-0.9,0-1.2-0.4c-0.5-1-0.7-2-0.7-3.2c-0.4,1.1-1.1,2.2-1.9,3.1c-1.8,0.7-3,0.1-3.4-1.9
		c-0.4-1.7-0.5-3.4-0.3-5.1C31.9,34.8,32.5,33.9,33.6,33.4z M33.3,35c1.4,0.2,2.7,0.6,4.1,1c-0.1,1.8-0.7,3.5-1.7,5.1
		c-0.7,0.2-1.2,0-1.6-0.6c-1-1.6-1.4-3.3-1.2-5.1C33,35.3,33.1,35.1,33.3,35z"/>
</g>
<g>
	<path class="st13" d="M42.7,33.4c0.7-0.1,1.3,0.2,1.6,0.8c0.2,0.8,0.3,1.6,0.3,2.5c0.6-1.2,1.4-2.3,2.2-3.2
		c2.1-0.3,3.3,0.6,3.6,2.7c0.1,1.9,0.1,3.8,0.2,5.6c0.3,0.4,0.6,0.3,0.8-0.2c0,0.1,0.1,0.1,0.1,0.2c-0.6,0.8-1.3,1.4-2.1,1.8
		c-0.5-0.1-0.9-0.4-1.2-0.8c-0.2-2-0.3-4.1-0.3-6.1c-0.4-0.8-1-1.1-1.8-0.8c-0.5,0.8-1,1.6-1.5,2.5c-0.1,1.2-0.1,2.3-0.2,3.5
		c-0.8,0.5-1.5,1-2.1,1.7c-0.1-2.7-0.2-5.3-0.2-8c-0.5-0.5-1-0.4-1.5,0.2c0-0.3,0.1-0.6,0.3-0.8C41.5,34.3,42.1,33.8,42.7,33.4z"/>
</g>
<g>
	<path class="st14" d="M80.8,33.4c2-0.1,4,0.1,6,0.7c0.1,2.4,0.2,4.8,0.2,7.1c0.2,0.8,0.5,0.9,1,0.2c0,0.1,0.1,0.1,0.1,0.2
		c-0.4,0.7-0.9,1.4-1.5,2.1c-0.7,0.1-1.2-0.2-1.6-0.7c-0.4-1-0.5-2.1-0.3-3.2c-0.4,1.2-1,2.2-1.7,3.2c-1.1,0.8-2.1,0.8-3.1-0.2
		c-0.9-2.1-1.2-4.2-1-6.5C79,34.9,79.6,33.9,80.8,33.4z M80.4,35c1.4,0.2,2.8,0.5,4.1,1c-0.1,1.9-0.7,3.5-1.7,5.1
		c-0.7,0.2-1.2,0-1.6-0.6c-0.8-1.4-1.2-2.9-1.4-4.5C79.8,35.6,80,35.2,80.4,35z"/>
</g>
<g>
	<path class="st7" d="M99.4,33.4c2-0.1,4,0.1,5.9,0.7c0,2.5,0.1,5,0.3,7.5c0.1,0.1,0.1,0.2,0.2,0.3c0.3-0.1,0.5-0.3,0.7-0.5
		c0.1,0.1,0.1,0.1,0.2,0.2c-0.5,0.7-1,1.4-1.7,2.1c-0.5,0.1-0.9,0-1.2-0.4c-0.5-1-0.7-2.2-0.7-3.3c-0.4,1.2-1,2.3-1.9,3.2
		c-1.1,0.6-2.1,0.4-2.9-0.6c-0.8-2.1-1.1-4.4-0.8-6.6C97.7,34.7,98.3,33.9,99.4,33.4z M99,35c1.3,0.3,2.7,0.6,4,0.8
		c0,1.9-0.6,3.6-1.6,5.1c-0.8,0.3-1.4,0.1-1.8-0.7c-0.8-1.5-1.2-3.1-1.2-4.8C98.6,35.3,98.8,35.2,99,35z"/>
</g>
<g>
	<path class="st15" d="M123.1,33.4c2-0.1,3.9,0.1,5.8,0.7c0.1,2.5,0.2,5,0.4,7.5c0.1,0.1,0.1,0.2,0.2,0.3c0.3-0.2,0.6-0.4,0.9-0.4
		c-0.5,0.8-1,1.5-1.7,2.2c-1,0-1.5-0.4-1.7-1.4c-0.1-0.8-0.1-1.6-0.2-2.3c-0.4,1.2-1,2.3-1.9,3.2c-1.1,0.6-2.1,0.4-2.9-0.6
		c-0.5-0.9-0.7-1.8-0.8-2.8c-0.1-1.3-0.1-2.7,0-4C121.5,34.6,122.1,33.8,123.1,33.4z M122.8,35c1.3,0.3,2.7,0.6,4,0.8
		c-0.1,1.8-0.6,3.6-1.6,5.1c-0.8,0.3-1.4,0.1-1.8-0.7c-0.9-1.5-1.3-3.1-1.2-4.8C122.4,35.3,122.6,35.2,122.8,35z"/>
</g>
<g>
	<path class="st16" d="M141,41.7V42c-0.6,0.6-1.2,1.1-1.8,1.6c-0.6,0.1-1.1-0.1-1.4-0.6c-0.2-2-0.3-4.1-0.3-6.1
		c-0.4-1.1-1-1.3-2-0.8c-0.4,0.7-0.8,1.5-1.3,2.2c0,1.2-0.1,2.4-0.2,3.7c-0.8,0.4-1.5,1-2.1,1.7c-0.1-2.6-0.1-5.2-0.2-7.8
		c-0.1-0.4-0.3-0.5-0.7-0.5c-0.4,0.2-0.7,0.3-1.1,0.4c0.6-0.8,1.3-1.5,2.2-2.2c0.8-0.2,1.4,0.1,1.7,0.9c0.2,0.7,0.3,1.4,0.3,2.2
		c0.7-1,1.4-2.1,2.1-3.1c1.7-0.4,2.9,0.2,3.6,1.7c0.1,2.1,0.1,4.2,0.2,6.3c0.1,0.3,0.2,0.5,0.5,0.7C140.6,42,140.8,41.8,141,41.7z"
		/>
</g>
</svg>
